<svg id="Capa_1" enable-background="new 0 0 512 512" height="512" viewBox="0 0 512 512" width="512" xmlns="http://www.w3.org/2000/svg"><g><g><path d="m431.443 498.197c-1.773-38.48-18.909-71.219-48.118-96.332-33.077-28.438-68.08-40.528-80.5-44.254-2.129-.639-3.107-4.562-5.278-5.04-.986-.217-1.905-.518-2.761-.893-13.686-5.984-11.232-30.65-11.232-30.65h-27.554-27.555s2.121 21.317-8.576 29.125c-1.528 1.115-1.199 4.074-3.294 4.536-2.198.485-4.394.947-6.55 1.594-12.405 3.728-47.8 16.111-80.634 44.108-29.473 25.132-46.049 58.892-47.896 97.582-.217 4.545-.214 4.295.061 9.092h174.444 175.372c.271-4.719.277-4.394.071-8.868z" fill="#d88a55"/><path d="m434.53 511.997h-357.06c-.279-4.791-.279-9.483-.06-14.025 1.843-38.688 20.39-74.567 49.864-99.699 32.858-28.027 68.287-40.403 80.663-44.117 2.048-.615 4.128-1.1 6.224-1.523 2.115-.427 3.927-1.231 5.471-2.322 1.706 9.699 6.183 21.301 17.369 28.566 11.48 7.456 26.516 7.456 37.996 0 11.186-7.265 15.664-18.867 17.369-28.566 1.545 1.091 3.356 1.895 5.471 2.322 2.096.423 4.176.908 6.224 1.523 12.375 3.715 47.804 16.09 80.663 44.117 29.474 25.131 48.022 61.011 49.864 99.699.22 4.542.22 9.234-.058 14.025z" fill="#596c76"/><path d="m434.527 511.995h-22.812c0-2.271-.051-4.511-.154-6.72-1.85-38.698-20.397-74.57-49.867-99.704-27.898-23.788-57.646-36.303-73.563-41.811 2.189-4.501 3.483-9.155 4.234-13.451 1.539 1.089 3.345 1.89 5.45 2.317 2.104.426 4.193.911 6.25 1.528 12.381 3.717 47.804 16.093 80.657 44.121 29.48 25.134 48.028 61.006 49.867 99.693.216 4.542.216 9.238-.062 14.027z" fill="#465a61"/><g><g><path d="m170.626 476.285v35.501c0 .071 0 .142-.01.213h-15.203c-.01-.071-.01-.142-.01-.213v-35.501c0-4.202 3.4-7.612 7.612-7.612 4.201 0 7.611 3.41 7.611 7.612z" fill="#35474c"/></g><g><path d="m356.598 476.285v35.501c0 .071 0 .142-.01.213h-15.203c-.01-.071-.01-.142-.01-.213v-35.501c0-4.202 3.41-7.612 7.612-7.612 4.211 0 7.611 3.41 7.611 7.612z" fill="#35474c"/></g></g></g><g><g fill="#d88a55"><path d="m139.253 212.65h-5.216c-15.826 0-28.656-12.83-28.656-28.656v-.054c0-15.826 12.83-28.656 28.656-28.656h5.216z"/><path d="m372.747 212.65h5.216c15.826 0 28.656-12.83 28.656-28.656v-.054c0-15.826-12.83-28.656-28.656-28.656h-5.216z"/></g><path d="m136.837 123.943.001 64.575 1.224 4.273.589 20.926c0 4.068.204 8.093.602 12.054 3.215 32.157 21.141 57.995 44.226 76.512 20.18 16.187 43.716 25.077 72.521 25.077 32.914 0 60.828-12.335 82.388-33.935 18.906-18.941 31.545-42.516 34.359-70.67.398-3.96.693-7.993.693-12.061l.188-16.019 1.533-6.157.001-64.575z" fill="#f6a96c"/><g><g><path d="m210.498 204.894c-4.143 0-7.5-3.358-7.5-7.5v-13.708c0-4.142 3.357-7.5 7.5-7.5s7.5 3.358 7.5 7.5v13.708c0 4.142-3.357 7.5-7.5 7.5z" fill="#596c76"/></g><g><path d="m301.502 204.894c-4.143 0-7.5-3.358-7.5-7.5v-13.708c0-4.142 3.357-7.5 7.5-7.5s7.5 3.358 7.5 7.5v13.708c0 4.142-3.358 7.5-7.5 7.5z" fill="#596c76"/></g></g><path d="m375.159 126.42v62.098l-1.154 4.649-.565 17.526c0 4.076-.296 8.108-.693 12.061-2.817 28.162-15.454 51.729-34.359 70.67-21.56 21.6-49.478 33.935-82.388 33.935-3.742 0-7.454-.173-11.105-.509 23.581-2.147 45.086-9.129 62.667-23.016 3.694-2.918 7.295-6.052 10.617-9.38 18.906-18.941 31.485-44.209 34.292-72.371.397-3.953.6-7.978.6-12.053l.01-83.609h22.078z" fill="#ea9b58"/><path d="m375.161 188.518v21.514c0 4.068-.204 8.093-.602 12.054-2.814 28.154-15.393 53.424-34.299 72.365-21.559 21.6-51.347 34.966-84.26 34.966-61.756 0-112.534-47.063-118.56-107.331-.397-3.96-.602-7.985-.602-12.054v-21.514s24.629 37.584 89.288 47.851c19.784 3.141 39.964 3.141 59.747 0 64.659-10.267 89.288-47.851 89.288-47.851z" fill="#f5f8f9"/><path d="m375.159 188.52v21.509c0 4.076-.203 8.1-.6 12.053-2.817 28.162-15.397 53.43-34.303 72.371-21.56 21.6-51.347 34.958-84.256 34.958-.966 0-1.932-.01-2.888-.031-1.515-.041-3.02-.102-4.515-.204-.407-.02-.803-.041-1.2-.071-.834-.061-1.658-.132-2.481-.204 23.574-2.16 45.062-11.177 62.646-25.065 3.692-2.924 7.292-6.052 10.617-9.384 18.906-18.941 31.485-44.209 34.292-72.371.397-3.953.6-7.978.6-12.053v-.194c15.447-11.176 22.088-21.314 22.088-21.314z" fill="#d9e7ec"/></g><path d="m402.397 98.365c0-18.024-14.611-32.635-32.635-32.635-.846 0-1.681.042-2.511.106 1.615-3.868 2.511-8.112 2.511-12.567 0-18.024-14.611-32.635-32.635-32.635-8.091 0-15.488 2.95-21.19 7.826-2.052-16.051-15.753-28.46-32.36-28.46-11.607 0-21.791 6.064-27.577 15.192-5.786-9.128-15.97-15.192-27.577-15.192-16.608 0-30.308 12.409-32.36 28.459-5.702-4.875-13.1-7.826-21.19-7.826-18.024 0-32.635 14.611-32.635 32.635 0 4.454.895 8.698 2.511 12.567-.83-.063-1.665-.106-2.511-.106-18.024 0-32.635 14.611-32.635 32.635 0 15.668 11.044 28.752 25.77 31.906 4.454 16.155 19.245 28.024 36.816 28.024 11.031 0 20.965-4.682 27.937-12.161 6.973 7.479 16.906 12.161 27.937 12.161s20.965-4.682 27.937-12.161c6.973 7.479 16.906 12.161 27.937 12.161s20.965-4.682 27.937-12.161c6.973 7.479 16.906 12.161 27.937 12.161 17.571 0 32.362-11.869 36.816-28.024 14.727-3.154 25.77-16.237 25.77-31.905z" fill="#ac5e2e"/><path d="m402.395 98.363c0 15.67-11.046 28.751-25.771 31.906-4.449 16.153-19.246 28.021-36.817 28.021-6.093 0-11.848-1.428-16.955-3.966 15.013-1.904 37.172-17.715 38.826-37.466.073-.868.791-1.536 1.661-1.574 1.737-.077 3.474-.17 5.21-.276 14.287-.873 21.205-17.535 13.711-28.266-1.107-1.584-2.562-2.882-4.13-4.011-3.006-2.164-6.293-3.732-9.952-4.668-3.959-1.013-12.168-.048-16.246-.048-.008 0-.017 0-.025 0-1.172.001-2.041-1.073-1.731-2.204 1.676-6.125 6.702-15.798 4.328-28.459-2.252-12.008-13.268-20.608-23.205-26.198 1.969-.364 4.006-.538 6.074-.523 17.759.13 32.379 14.859 32.387 32.618.002 4.466-.892 8.715-2.507 12.583.832-.062 1.665-.103 2.507-.103 18.024-.001 32.635 14.611 32.635 32.634z" fill="#9e5528"/></g></svg>