<svg width="512" height="512" viewBox="0 0 512 512" fill="none" xmlns="http://www.w3.org/2000/svg">
<path d="M250.89 197.505C306.424 197.505 351.443 153.423 351.443 99.046C351.443 69.2446 337.921 42.5357 316.557 24.4806C321.801 24.4806 339.54 29.079 368.543 47.4724C404.797 70.4642 455.605 111.296 472.665 167.447C497.289 248.491 470.962 321.58 443.252 360.345C415.542 399.11 359.65 420.544 306.98 409.157C254.31 397.771 245.417 383.705 190.011 338.16C134.604 292.614 59.3619 286.586 25.8444 314.717C-7.67309 342.848 -15.1974 399.11 43.6292 457.382C102.456 515.653 241.998 517.663 302.877 506.946C363.756 496.229 468.412 436.618 497.142 342.848C525.871 249.078 510.364 177.072 472.665 117.213C456.636 91.7607 410.954 43.4537 354.179 19.3414C308.759 0.0515414 266.395 -1.19873 250.89 0.587371C195.357 0.587371 150.338 44.6688 150.338 99.046C150.338 153.423 195.357 197.505 250.89 197.505Z" fill="#0249CD"/>
<rect x="221.625" y="45.5455" width="67.035" height="424.645" fill="#0249CD"/>
</svg>
