<svg width="2429" height="512" viewBox="0 0 2429 512" fill="none" xmlns="http://www.w3.org/2000/svg">
<path d="M250.89 197.505C306.424 197.505 351.443 153.423 351.443 99.046C351.443 69.2446 337.921 42.5357 316.557 24.4806C321.801 24.4806 339.54 29.079 368.543 47.4724C404.797 70.4642 455.605 111.296 472.665 167.447C497.289 248.491 470.962 321.58 443.252 360.345C415.542 399.11 359.65 420.544 306.98 409.157C254.31 397.771 245.417 383.705 190.011 338.16C134.604 292.614 59.3619 286.586 25.8444 314.717C-7.67309 342.848 -15.1974 399.11 43.6292 457.382C102.456 515.653 241.998 517.663 302.877 506.946C363.756 496.229 468.412 436.618 497.142 342.848C525.871 249.078 510.364 177.072 472.665 117.213C456.636 91.7607 410.954 43.4537 354.179 19.3414C308.759 0.0515414 266.395 -1.19873 250.89 0.587371C195.357 0.587371 150.338 44.6688 150.338 99.046C150.338 153.423 195.357 197.505 250.89 197.505Z" fill="#0249CD"/>
<rect x="221.625" y="45.5454" width="67.035" height="424.645" fill="#0249CD"/>
<path d="M574.914 295C574.914 277.943 577.388 263.034 582.336 250.273C587.284 237.383 593.859 226.641 602.062 218.047C610.396 209.453 620.031 203.008 630.969 198.711C641.906 194.414 653.365 192.266 665.344 192.266C677.323 192.266 688.781 194.284 699.719 198.32C710.656 202.227 720.227 208.281 728.43 216.484C736.763 224.688 743.404 235.104 748.352 247.734C753.299 260.234 755.773 275.078 755.773 292.266C755.773 309.323 753.299 324.427 748.352 337.578C743.404 350.729 736.763 361.797 728.43 370.781C720.227 379.766 710.656 386.602 699.719 391.289C688.781 395.846 677.323 398.125 665.344 398.125C653.365 398.125 641.906 395.977 630.969 391.68C620.031 387.253 610.396 380.742 602.062 372.148C593.859 363.555 587.284 352.812 582.336 339.922C577.388 327.031 574.914 312.057 574.914 295ZM695.031 293.047C695.031 282.63 694.641 272.604 693.859 262.969C693.208 253.203 691.841 244.544 689.758 236.992C687.674 229.44 684.68 223.451 680.773 219.023C676.867 214.466 671.724 212.188 665.344 212.188C658.964 212.188 653.82 214.596 649.914 219.414C646.008 224.102 643.013 230.352 640.93 238.164C638.846 245.846 637.479 254.635 636.828 264.531C636.177 274.427 635.852 284.583 635.852 295C635.852 305.417 636.177 315.638 636.828 325.664C637.479 335.56 638.846 344.414 640.93 352.227C643.013 360.039 646.008 366.354 649.914 371.172C653.82 375.859 658.964 378.203 665.344 378.203C671.724 378.203 676.867 375.729 680.773 370.781C684.68 365.833 687.674 359.323 689.758 351.25C691.841 343.177 693.208 334.062 693.859 323.906C694.641 313.75 695.031 303.464 695.031 293.047ZM803.992 295C803.992 277.943 806.466 263.034 811.414 250.273C816.362 237.383 822.938 226.641 831.141 218.047C839.474 209.453 849.109 203.008 860.047 198.711C870.984 194.414 882.443 192.266 894.422 192.266C906.401 192.266 917.859 194.284 928.797 198.32C939.734 202.227 949.305 208.281 957.508 216.484C965.841 224.688 972.482 235.104 977.43 247.734C982.378 260.234 984.852 275.078 984.852 292.266C984.852 309.323 982.378 324.427 977.43 337.578C972.482 350.729 965.841 361.797 957.508 370.781C949.305 379.766 939.734 386.602 928.797 391.289C917.859 395.846 906.401 398.125 894.422 398.125C882.443 398.125 870.984 395.977 860.047 391.68C849.109 387.253 839.474 380.742 831.141 372.148C822.938 363.555 816.362 352.812 811.414 339.922C806.466 327.031 803.992 312.057 803.992 295ZM924.109 293.047C924.109 282.63 923.719 272.604 922.938 262.969C922.286 253.203 920.919 244.544 918.836 236.992C916.753 229.44 913.758 223.451 909.852 219.023C905.945 214.466 900.802 212.188 894.422 212.188C888.042 212.188 882.898 214.596 878.992 219.414C875.086 224.102 872.091 230.352 870.008 238.164C867.924 245.846 866.557 254.635 865.906 264.531C865.255 274.427 864.93 284.583 864.93 295C864.93 305.417 865.255 315.638 865.906 325.664C866.557 335.56 867.924 344.414 870.008 352.227C872.091 360.039 875.086 366.354 878.992 371.172C882.898 375.859 888.042 378.203 894.422 378.203C900.802 378.203 905.945 375.729 909.852 370.781C913.758 365.833 916.753 359.323 918.836 351.25C920.919 343.177 922.286 334.062 922.938 323.906C923.719 313.75 924.109 303.464 924.109 293.047ZM1107.88 233.477C1112.82 225.924 1118.1 219.089 1123.7 212.969C1126.04 210.365 1128.58 207.826 1131.31 205.352C1134.05 202.878 1136.85 200.664 1139.71 198.711C1142.71 196.758 1145.77 195.195 1148.89 194.023C1152.02 192.852 1155.14 192.266 1158.27 192.266C1164.91 192.266 1170.11 194.284 1173.89 198.32C1177.67 202.227 1179.55 207.76 1179.55 214.922C1179.55 219.349 1179.16 223.646 1178.38 227.812C1177.73 231.849 1176.36 236.797 1174.28 242.656H1168.81C1168.03 238.62 1166.21 235.299 1163.34 232.695C1160.48 229.961 1156.31 228.594 1150.84 228.594C1146.81 228.594 1142.84 229.375 1138.93 230.938C1135.02 232.37 1131.18 234.193 1127.41 236.406C1123.76 238.62 1120.24 241.029 1116.86 243.633C1113.6 246.237 1110.61 248.711 1107.88 251.055V377.812C1107.88 379.505 1107.61 381.523 1107.09 383.867C1106.57 386.211 1105.27 388.424 1103.19 390.508C1101.23 392.591 1098.24 394.349 1094.2 395.781C1090.3 397.344 1084.89 398.125 1077.99 398.125C1071.09 398.125 1065.62 397.279 1061.59 395.586C1057.68 394.023 1054.68 392.135 1052.6 389.922C1050.52 387.708 1049.22 385.43 1048.7 383.086C1048.17 380.742 1047.91 378.854 1047.91 377.422V226.641C1047.91 222.865 1047 219.609 1045.18 216.875C1043.49 214.01 1040.56 212.578 1036.39 212.578C1034.18 212.578 1032.29 212.969 1030.73 213.75C1029.16 214.531 1027.47 215.638 1025.65 217.07L1021.55 212.188C1024.54 209.714 1027.86 207.305 1031.51 204.961C1035.28 202.487 1039.32 200.339 1043.62 198.516C1047.91 196.693 1052.54 195.195 1057.48 194.023C1062.43 192.852 1067.64 192.266 1073.11 192.266C1078.71 192.266 1083.46 193.047 1087.37 194.609C1091.4 196.042 1094.66 197.995 1097.13 200.469C1099.74 202.812 1101.76 205.482 1103.19 208.477C1104.62 211.471 1105.66 214.531 1106.31 217.656C1107.09 220.651 1107.55 223.581 1107.68 226.445C1107.81 229.18 1107.88 231.523 1107.88 233.477ZM1466.45 254.18C1466.45 245.586 1465.86 238.49 1464.69 232.891C1463.52 227.292 1462.21 222.669 1460.78 219.023C1459.48 215.247 1458.24 212.188 1457.07 209.844C1455.9 207.37 1455.31 205.091 1455.31 203.008C1455.31 201.055 1456.09 199.427 1457.66 198.125C1459.22 196.823 1461.04 195.716 1463.12 194.805C1465.34 193.893 1467.55 193.242 1469.77 192.852C1472.11 192.461 1474 192.266 1475.43 192.266C1479.21 192.266 1481.94 192.786 1483.63 193.828C1485.33 194.87 1486.69 196.888 1487.73 199.883C1488.91 203.659 1489.69 208.672 1490.08 214.922C1490.6 221.042 1490.86 227.617 1490.86 234.648C1490.86 244.674 1490.27 255.677 1489.1 267.656C1487.93 279.635 1486.04 291.68 1483.44 303.789C1480.96 315.898 1477.71 327.617 1473.67 338.945C1469.77 350.273 1465.01 360.365 1459.41 369.219C1453.82 377.943 1447.37 384.974 1440.08 390.312C1432.79 395.521 1424.52 398.125 1415.27 398.125C1407.98 398.125 1401.41 396.693 1395.55 393.828C1389.82 390.833 1384.67 386.797 1380.12 381.719C1375.56 376.641 1371.52 370.716 1368.01 363.945C1364.62 357.044 1361.63 349.688 1359.02 341.875C1356.03 349.818 1352.58 357.24 1348.67 364.141C1344.77 370.911 1340.4 376.836 1335.59 381.914C1330.9 386.992 1325.69 390.964 1319.96 393.828C1314.23 396.693 1308.05 398.125 1301.41 398.125C1293.2 398.125 1285.91 396.367 1279.53 392.852C1273.28 389.206 1267.75 384.323 1262.93 378.203C1258.11 371.953 1253.95 364.727 1250.43 356.523C1246.91 348.32 1243.85 339.661 1241.25 330.547C1238.78 321.432 1236.69 312.057 1235 302.422C1233.31 292.786 1231.88 283.477 1230.7 274.492C1229.53 265.508 1228.55 257.109 1227.77 249.297C1226.99 241.484 1226.21 234.714 1225.43 228.984C1224.52 223.776 1223.15 219.74 1221.33 216.875C1219.64 214.01 1216.71 212.578 1212.54 212.578C1210.33 212.578 1208.44 212.969 1206.88 213.75C1205.31 214.531 1203.62 215.638 1201.8 217.07L1197.7 212.188C1200.69 209.714 1204.01 207.305 1207.66 204.961C1211.43 202.487 1215.47 200.339 1219.77 198.516C1224.06 196.693 1228.68 195.195 1233.63 194.023C1238.58 192.852 1243.79 192.266 1249.26 192.266C1257.07 192.266 1263.39 193.633 1268.2 196.367C1273.02 198.971 1276.8 202.292 1279.53 206.328C1282.4 210.234 1284.41 214.466 1285.59 219.023C1286.76 223.581 1287.6 227.682 1288.12 231.328C1290.47 250.99 1292.75 268.307 1294.96 283.281C1297.3 298.255 1299.78 310.82 1302.38 320.977C1304.99 331.003 1307.79 338.62 1310.78 343.828C1313.91 348.906 1317.55 351.445 1321.72 351.445C1324.45 351.445 1327.12 350.273 1329.73 347.93C1332.33 345.586 1334.8 342.331 1337.15 338.164C1339.49 333.997 1341.71 328.984 1343.79 323.125C1345.87 317.135 1347.7 310.56 1349.26 303.398C1347.96 296.237 1346.85 289.141 1345.94 282.109C1345.03 275.078 1344.18 268.372 1343.4 261.992C1342.75 255.482 1342.1 249.427 1341.45 243.828C1340.79 238.229 1340.08 233.281 1339.3 228.984C1337.34 216.745 1338.45 207.565 1342.62 201.445C1346.91 195.326 1355.44 192.266 1368.2 192.266C1373.8 192.266 1378.49 192.786 1382.27 193.828C1386.17 194.74 1389.36 196.562 1391.84 199.297C1394.44 201.901 1396.52 205.547 1398.09 210.234C1399.65 214.792 1400.89 220.651 1401.8 227.812C1404.27 247.344 1406.68 264.792 1409.02 280.156C1411.37 295.521 1413.84 308.477 1416.45 319.023C1419.05 329.57 1421.85 337.643 1424.84 343.242C1427.97 348.711 1431.61 351.445 1435.78 351.445C1440.21 351.445 1444.31 348.711 1448.09 343.242C1451.86 337.773 1455.12 330.547 1457.85 321.562C1460.59 312.578 1462.67 302.227 1464.1 290.508C1465.66 278.789 1466.45 266.68 1466.45 254.18ZM1638.88 293.828C1638.88 290.573 1637.84 288.099 1635.76 286.406C1633.67 284.714 1631.01 283.867 1627.75 283.867C1623.19 283.867 1618.83 284.909 1614.66 286.992C1610.63 289.076 1607.05 292.135 1603.92 296.172C1600.8 300.208 1598.32 305.221 1596.5 311.211C1594.68 317.07 1593.77 323.906 1593.77 331.719C1593.77 339.271 1594.29 345.521 1595.33 350.469C1596.5 355.417 1598 359.388 1599.82 362.383C1601.77 365.247 1603.99 367.266 1606.46 368.438C1608.93 369.609 1611.54 370.195 1614.27 370.195C1617.66 370.195 1620.85 369.349 1623.84 367.656C1626.84 365.833 1629.44 363.555 1631.66 360.82C1633.87 358.086 1635.63 355.026 1636.93 351.641C1638.23 348.255 1638.88 344.87 1638.88 341.484V293.828ZM1607.83 208.281C1603.4 208.281 1599.3 208.802 1595.52 209.844C1591.75 210.885 1588.49 212.188 1585.76 213.75C1583.02 215.312 1580.88 217.07 1579.31 219.023C1577.75 220.846 1576.97 222.604 1576.97 224.297C1576.97 226.25 1577.95 227.682 1579.9 228.594C1581.98 229.375 1584.26 230.352 1586.73 231.523C1589.21 232.565 1591.42 234.128 1593.38 236.211C1595.46 238.164 1596.5 241.224 1596.5 245.391C1596.5 248.125 1595.91 250.664 1594.74 253.008C1593.7 255.221 1592.2 257.24 1590.25 259.062C1588.43 260.755 1586.21 262.122 1583.61 263.164C1581.14 264.076 1578.53 264.531 1575.8 264.531C1568.51 264.531 1562.58 262.057 1558.02 257.109C1553.6 252.161 1551.38 245.586 1551.38 237.383C1551.38 229.44 1553.47 222.669 1557.63 217.07C1561.8 211.341 1567.2 206.654 1573.84 203.008C1580.61 199.362 1588.23 196.693 1596.7 195C1605.16 193.177 1613.62 192.266 1622.09 192.266C1632.24 192.266 1641.94 193.372 1651.19 195.586C1660.43 197.799 1668.57 201.315 1675.6 206.133C1682.76 210.951 1688.43 217.07 1692.59 224.492C1696.89 231.914 1699.04 240.898 1699.04 251.445V361.797C1699.04 362.969 1699.1 364.271 1699.23 365.703C1699.36 367.135 1699.69 368.438 1700.21 369.609C1700.73 370.781 1701.51 371.758 1702.55 372.539C1703.6 373.32 1705.09 373.711 1707.05 373.711C1709.39 373.711 1711.54 372.865 1713.49 371.172C1715.58 369.349 1717.4 367.526 1718.96 365.703L1723.84 369.805C1721.89 372.539 1719.55 375.534 1716.81 378.789C1714.08 382.044 1710.76 385.104 1706.85 387.969C1702.95 390.833 1698.39 393.242 1693.18 395.195C1687.97 397.148 1682.05 398.125 1675.41 398.125C1667.2 398.125 1659.91 395.716 1653.53 390.898C1647.15 385.951 1642.98 378.398 1641.03 368.242C1636.86 373.841 1632.5 378.529 1627.95 382.305C1623.52 386.081 1618.96 389.141 1614.27 391.484C1609.59 393.828 1604.83 395.521 1600.02 396.562C1595.33 397.604 1590.58 398.125 1585.76 398.125C1579.51 398.125 1573.45 397.148 1567.59 395.195C1561.73 393.242 1556.46 390.182 1551.77 386.016C1547.22 381.719 1543.51 376.185 1540.64 369.414C1537.91 362.643 1536.54 354.375 1536.54 344.609C1536.54 332.76 1538.88 323.06 1543.57 315.508C1548.26 307.956 1554.38 301.641 1561.93 296.562C1569.61 291.354 1578.27 286.927 1587.91 283.281C1597.67 279.635 1607.63 275.794 1617.79 271.758C1625.34 268.763 1630.81 264.336 1634.2 258.477C1637.71 252.487 1639.47 246.367 1639.47 240.117C1639.47 230.482 1636.6 222.799 1630.88 217.07C1625.28 211.211 1617.59 208.281 1607.83 208.281ZM1836.52 233.477C1841.46 225.924 1846.74 219.089 1852.34 212.969C1854.68 210.365 1857.22 207.826 1859.95 205.352C1862.69 202.878 1865.49 200.664 1868.35 198.711C1871.35 196.758 1874.41 195.195 1877.53 194.023C1880.66 192.852 1883.78 192.266 1886.91 192.266C1893.55 192.266 1898.76 194.284 1902.53 198.32C1906.31 202.227 1908.2 207.76 1908.2 214.922C1908.2 219.349 1907.8 223.646 1907.02 227.812C1906.37 231.849 1905.01 236.797 1902.92 242.656H1897.45C1896.67 238.62 1894.85 235.299 1891.98 232.695C1889.12 229.961 1884.95 228.594 1879.48 228.594C1875.45 228.594 1871.48 229.375 1867.57 230.938C1863.66 232.37 1859.82 234.193 1856.05 236.406C1852.4 238.62 1848.89 241.029 1845.5 243.633C1842.24 246.237 1839.25 248.711 1836.52 251.055V377.812C1836.52 379.505 1836.26 381.523 1835.73 383.867C1835.21 386.211 1833.91 388.424 1831.83 390.508C1829.88 392.591 1826.88 394.349 1822.84 395.781C1818.94 397.344 1813.53 398.125 1806.63 398.125C1799.73 398.125 1794.26 397.279 1790.23 395.586C1786.32 394.023 1783.33 392.135 1781.24 389.922C1779.16 387.708 1777.86 385.43 1777.34 383.086C1776.82 380.742 1776.55 378.854 1776.55 377.422V226.641C1776.55 222.865 1775.64 219.609 1773.82 216.875C1772.13 214.01 1769.2 212.578 1765.03 212.578C1762.82 212.578 1760.93 212.969 1759.37 213.75C1757.8 214.531 1756.11 215.638 1754.29 217.07L1750.19 212.188C1753.18 209.714 1756.5 207.305 1760.15 204.961C1763.92 202.487 1767.96 200.339 1772.26 198.516C1776.55 196.693 1781.18 195.195 1786.12 194.023C1791.07 192.852 1796.28 192.266 1801.75 192.266C1807.35 192.266 1812.1 193.047 1816.01 194.609C1820.04 196.042 1823.3 197.995 1825.77 200.469C1828.38 202.812 1830.4 205.482 1831.83 208.477C1833.26 211.471 1834.3 214.531 1834.95 217.656C1835.73 220.651 1836.19 223.581 1836.32 226.445C1836.45 229.18 1836.52 231.523 1836.52 233.477ZM2057.39 288.945C2057.39 287.513 2057.39 284.648 2057.39 280.352C2057.39 275.924 2057.26 270.911 2057 265.312C2056.74 259.583 2056.28 253.529 2055.63 247.148C2054.98 240.768 2053.94 234.844 2052.51 229.375C2049.38 225.339 2045.87 221.758 2041.96 218.633C2038.18 215.378 2033.3 213.75 2027.31 213.75C2017.16 213.75 2009.67 220.391 2004.85 233.672C2000.16 246.953 1997.82 267.526 1997.82 295.391C1997.82 307.63 1998.34 318.828 1999.38 328.984C2000.55 339.141 2002.25 347.865 2004.46 355.156C2006.8 362.448 2009.73 368.112 2013.25 372.148C2016.9 376.185 2021.19 378.203 2026.14 378.203C2046.97 378.203 2057.39 348.451 2057.39 288.945ZM2055.05 203.008C2052.57 189.987 2049.12 177.878 2044.7 166.68C2040.27 155.352 2034.93 145.586 2028.68 137.383C2022.56 129.18 2015.53 122.734 2007.59 118.047C1999.77 113.359 1991.31 111.016 1982.2 111.016C1976.99 111.016 1972.23 111.667 1967.94 112.969C1963.77 114.271 1960.12 115.833 1957 117.656C1953.88 119.349 1951.27 121.042 1949.19 122.734C1947.23 124.297 1945.8 125.469 1944.89 126.25L1939.81 119.414C1942.94 115.378 1946.71 111.602 1951.14 108.086C1955.7 104.57 1960.65 101.576 1965.98 99.1016C1971.32 96.6276 1976.92 94.6745 1982.78 93.2422C1988.77 91.8099 1994.7 91.0938 2000.55 91.0938C2019.83 91.0938 2036.75 95.3255 2051.34 103.789C2065.92 112.122 2078.09 123.971 2087.86 139.336C2097.62 154.701 2104.98 173.255 2109.93 195C2114.88 216.745 2117.35 240.898 2117.35 267.461C2117.35 288.945 2115.14 307.826 2110.71 324.102C2106.41 340.378 2100.23 354.049 2092.16 365.117C2084.08 376.055 2074.25 384.323 2062.66 389.922C2051.21 395.391 2038.25 398.125 2023.8 398.125C2013.77 398.125 2003.55 396.367 1993.13 392.852C1982.85 389.206 1973.47 383.346 1965.01 375.273C1956.67 367.201 1949.84 356.654 1944.5 343.633C1939.16 330.482 1936.49 314.401 1936.49 295.391C1936.49 278.984 1938.77 264.401 1943.33 251.641C1948.02 238.88 1954.27 228.138 1962.08 219.414C1969.89 210.56 1978.94 203.854 1989.23 199.297C1999.51 194.609 2010.39 192.266 2021.84 192.266C2026.27 192.266 2030.24 192.656 2033.76 193.438C2037.27 194.089 2040.33 194.935 2042.94 195.977C2045.54 197.018 2047.82 198.19 2049.77 199.492C2051.73 200.664 2053.48 201.836 2055.05 203.008Z" fill="#0249CD"/>
</svg>
