<svg width="512" height="512" viewBox="0 0 512 512" fill="none" xmlns="http://www.w3.org/2000/svg">
<rect width="512" height="512" rx="50" fill="white"/>
<path d="M252.028 210.529C295.197 210.529 330.192 176.263 330.192 133.993C330.192 110.827 319.681 90.0648 303.074 76.0298C307.15 76.0298 320.939 79.6044 343.485 93.9024C371.666 111.775 411.161 143.515 424.423 187.164C443.565 250.163 423.1 306.978 401.559 337.112C380.019 367.246 336.572 383.907 295.629 375.056C254.686 366.205 247.774 355.271 204.704 319.866C161.634 284.462 103.145 279.776 77.09 301.643C51.0354 323.511 45.1864 367.246 90.9149 412.543C136.643 457.84 245.116 459.402 292.439 451.071C339.763 442.741 421.117 396.403 443.45 323.511C465.782 250.619 453.728 194.646 424.423 148.115C411.963 128.33 376.452 90.7785 332.319 72.0349C297.012 57.0401 264.081 56.0682 252.028 57.4566C208.859 57.4566 173.864 91.723 173.864 133.993C173.864 176.263 208.859 210.529 252.028 210.529Z" fill="#0249CD"/>
<rect x="229.279" y="92.4045" width="52.1092" height="330.095" fill="#0249CD"/>
</svg>
